<?xml version="1.0" encoding="utf-8"?>
<!-- Generator: Adobe Illustrator 19.2.0, SVG Export Plug-In . SVG Version: 6.00 Build 0)  -->
<svg version="1.1" id="Calque_1" xmlns="http://www.w3.org/2000/svg" xmlns:xlink="http://www.w3.org/1999/xlink" x="0px" y="0px"
	 viewBox="0 0 98.9 89.9" style="enable-background:new 0 0 98.9 89.9;" xml:space="preserve">
<style type="text/css">
	.st0{clip-path:url(#SVGID_2_);fill:#FFDCB8;}
	.st1{clip-path:url(#SVGID_2_);fill:#725C2B;}
	.st2{clip-path:url(#SVGID_2_);fill:#190F08;}
	.st3{clip-path:url(#SVGID_2_);fill:#493918;}
	.st4{clip-path:url(#SVGID_2_);fill:#CB8F5E;}
	.st5{clip-path:url(#SVGID_2_);fill:#DA9089;}
	.st6{clip-path:url(#SVGID_2_);fill:#753427;}
	.st7{clip-path:url(#SVGID_2_);fill:#464B4C;}
	.st8{clip-path:url(#SVGID_2_);fill:#9E9E9E;}
	.st9{clip-path:url(#SVGID_2_);fill:#E5E5E5;}
	.st10{clip-path:url(#SVGID_2_);fill:#141414;}
	.st11{clip-path:url(#SVGID_2_);fill:#676B6B;}
	.st12{clip-path:url(#SVGID_2_);fill:#232728;}
	.st13{clip-path:url(#SVGID_2_);fill:#FFFFFF;}
</style>
<g>
	<defs>
		<circle id="SVGID_1_" cx="53.9" cy="39.9" r="44.9"/>
	</defs>
	<clipPath id="SVGID_2_">
		<use xlink:href="#SVGID_1_"  style="overflow:visible;"/>
	</clipPath>
	<path class="st0" d="M65.5,26.8c0,0,13.5,30.9,14,34.7c0.5,3.8-19.9,11.3-25.6,7.6c-5.7-3.6-12.9-30-14.2-34.7
		C38.5,29.8,56.5,12.1,65.5,26.8"/>
	<path class="st1" d="M44.4,55c0,0,3.1-13-4.1-18.2c0,0,8.9,0.9,7.5-2.4c-1.4-3.3-3.7-3.3-3.7-3.3s13.1,1,13.3-1.9
		c0.2-2.9-2.8-2.2-2.8-2.2s11.2,2.6,14.2-0.1c2.9-2.7,0.8-4-1-3c0,0,7.6-11.6-2.4-13.8c-10-2.2-4.1,5.7-4.1,5.7s-5.4-7.4-13.4-5.2
		c-8,2.2-2,5.5,0,6.7c0,0-11.1,3.1-13.7,8.8c0,0-0.9-4.7-4-3.8C27,23.2,31,26.5,31,26.5s-3.6-0.9-4.7,1.7c-1,2.6,4.8,2.4,4.8,2.4
		s-7.6,12,4.7,22.4c0,0-3.3,0.7-2.8,2.7c0.5,2,3.3,1.7,3.3,1.7s-1.9,4,2.8,2.3C43.7,57.9,44.4,55,44.4,55"/>
	<path class="st0" d="M45.6,52.9c0,0-3.5-2.4-6.6,0c-3.1,2.4,2.1,10.5,8.5,4.7C47.5,57.5,48.8,56.1,45.6,52.9"/>
	<path class="st2" d="M52.6,44.3c0.2,0.9-0.1,1.8-0.8,2c-0.7,0.2-1.4-0.5-1.6-1.4c-0.2-0.9,0.1-1.8,0.8-2
		C51.6,42.7,52.3,43.4,52.6,44.3"/>
	<path class="st2" d="M65.4,41.2c0.2,0.9-0.1,1.8-0.8,2c-0.7,0.2-1.4-0.5-1.6-1.4c-0.2-0.9,0.1-1.8,0.8-2
		C64.5,39.6,65.2,40.2,65.4,41.2"/>
	<path class="st3" d="M47.8,39.7c0,0,1.6-4.6,5.1-4.9C52.9,34.9,48,33,47.8,39.7"/>
	<path class="st4" d="M61.2,38c0,0,0.9,4.5,1.4,5c0.5,0.5,5.2-2.2,6,0c0.9,2.2-2.8,3.3-4.7,3.5c0,0,3.8-1.5,3.5-2.9
		c-0.3-1.4-4.1,1.2-5.2,1C61.2,44.4,61.2,38,61.2,38"/>
	<path class="st5" d="M57.2,59.1c-0.4,3.8-0.3,7.2-0.3,7.2s4.2-1.5,8.6-2.9C63.7,59.6,59.9,59,57.2,59.1"/>
	<path class="st6" d="M62,48.6c-3.1,0.9-4.3,6-4.9,10.5c2.7-0.1,6.5,0.5,8.3,4.3c3.2-1,6.5-2,8.6-2.4C74.1,60.9,70.1,46.1,62,48.6"
		/>
	<path class="st7" d="M45.4,70c0,0-1.7-4-3.5-5.9c-1.8-1.9-21.1,11.5-21.1,33.5c0,18.8,4.9,23.1,5.4,24c0.5,0.9,9.7,4.8,24.4-2.9
		l-0.3-2.2c0,0,1.1,0.5,2.2,0.2c1.1-0.3,6.4-5.9,7.7-9.2c0,0-6.4-2.9-7.7-4.3c-4.2-4.8-2-23.1,1.6-26.9c0,0-0.5-1.1-3.5-2
		C47.6,73.3,45.4,70,45.4,70"/>
	<path class="st8" d="M46.8,67.5c0,0,4,3.4,6.1,6.7c0,0-2.6,3.5-6.5,1.3C42.4,73.2,43.2,67.8,46.8,67.5"/>
	<path class="st0" d="M58.7,69.7c0,0-7.3,2.5-9,3.9c-3.6,6.8-3.1,0.2-3.3-1.2c-0.2-1.4,5.3-6.6,5.3-6.6S55.8,64.9,58.7,69.7"/>
	<path class="st9" d="M44.1,71.8c0,0-5.2,14.9-1.1,29.8c0,0,4.1-20.8,8.6-25.9l-3.3-1.5l-0.6,1.7l-0.5-2.7L44.1,71.8z"/>
	<path class="st10" d="M45.9,75.3l2,0.6l0.4,2.8c0,0-3-0.2-3.4-0.7C44.6,77.5,45.9,75.3,45.9,75.3"/>
	<path class="st11" d="M45.4,70c0,0-6,0-7.2-1.7c0,0-0.3,7.4,2.3,12.4l-7.4,3c0,0,7.1,14.6,9.9,17.9C43,101.6,40.2,77.8,45.4,70"/>
	<path class="st11" d="M50.6,74.2c0,0,3.5,2,6.3,0.9c0,0-2.8,5.5-7.2,6.9c0,0,3.5,1,5.5,0.9c0,0-10.2,14.3-12.2,18.6
		C43,101.6,42.6,94.6,50.6,74.2"/>
	<path class="st12" d="M43.7,103.5c0,0,0.7,7.4,6.2,11.6C49.9,115,45.2,109.2,43.7,103.5"/>
	<path class="st11" d="M37.8,123.1c0,0-7.4-1.6-10.5-5.4c0,0-2,1.6-1.2,4C26.2,121.6,30.5,124,37.8,123.1"/>
	<path class="st13" d="M46.8,67.5c0,0-1.6,1.9,0.5,5.7l-3,2c0,0-2.4-6.4-0.6-8.3L46.8,67.5z"/>
	<polygon class="st13" points="48.3,74.2 49.3,77.2 52.9,74.2 51.6,72.5 	"/>
	<path class="st12" d="M43.4,106.6c0.2,0.7-0.1,1.3-0.6,1.5c-0.5,0.1-1-0.3-1.2-1c-0.2-0.7,0.1-1.3,0.6-1.5
		C42.7,105.5,43.2,105.9,43.4,106.6"/>
	<path class="st12" d="M45.5,112.4c0.2,0.7-0.1,1.3-0.6,1.5c-0.5,0.1-1-0.3-1.2-1c-0.2-0.7,0.1-1.3,0.6-1.5
		C44.8,111.2,45.4,111.7,45.5,112.4"/>
	<path class="st12" d="M40.1,122.6c0,0,9.5-3.3,10.4-4.3l-0.6-2.3c0,0,2,0.9,2.6,0.6c0,0,6.1-6,7.4-8.5c0,0-3.9,6.4-7.6,9.5
		l-1.4-0.6l0.5,1.8C51.4,118.8,45.7,121.9,40.1,122.6"/>
	<path class="st10" d="M46.1,78.6c0,0,0.4,4.2-3.3,6.9c-3.8,2.8-13.4,2.3-17,10.7l1.6,5.3l5.3-0.2c0,0,1-6.2,6.9-8.1
		c5.9-2,10.5-7.5,8.2-15.2C47.7,78,46.2,77.5,46.1,78.6"/>
</g>
</svg>
